<svg height="512pt" viewBox="0 0 512 512" width="512pt" xmlns="http://www.w3.org/2000/svg"><path d="m512 256c0 141.386719-114.613281 256-256 256s-256-114.613281-256-256 114.613281-256 256-256 256 114.613281 256 256zm0 0" fill="#4a7aff"/><path d="m512 256c0-3.707031-.097656-7.386719-.253906-11.054688l-145.640625-145.640624-31.320313 24.484374-64.785156-64.789062-30 60.667969 81.835938 81.835937-14.1875 14.191406-31.683594-31.683593-.808594 2.144531-65.140625-65.140625-21.21875 21.207031 38.980469 38.980469h-123.753906l-13.507813 120.9375 98.410156 98.035156-21.816406 33.730469 77.84375 77.839844c3.664063.15625 7.34375.253906 11.046875.253906 141.386719 0 256-114.613281 256-256zm0 0" fill="#0053bf"/><path d="m206.230469 322.519531h-64.472657c-41.222656 0-74.757812-33.535156-74.757812-74.757812v-9.398438c0-41.222656 33.535156-74.757812 74.757812-74.757812h82.933594c41.222656 0 74.757813 33.535156 74.757813 74.757812v19.398438h-34v-19.398438c0-22.472656-18.285157-40.757812-40.757813-40.757812h-82.933594c-22.472656 0-40.757812 18.285156-40.757812 40.757812v9.398438c0 22.472656 18.285156 40.757812 40.757812 40.757812h64.472657zm0 0" fill="#fff"/><path d="m255.808594 170.414062v41.667969c6.007812 7.101563 9.640625 16.273438 9.640625 26.28125v19.398438h34v-19.398438c0-30.121093-17.914063-56.117187-43.640625-67.949219zm0 0" fill="#e9edf5"/><path d="m370.242188 348.394531h-82.933594c-41.222656 0-74.757813-33.535156-74.757813-74.757812v-19.398438h34v19.398438c0 22.472656 18.285157 40.757812 40.757813 40.757812h82.933594c22.472656 0 40.757812-18.285156 40.757812-40.757812v-9.398438c0-22.472656-18.285156-40.757812-40.757812-40.757812h-64.472657v-34h64.472657c41.222656 0 74.757812 33.539062 74.757812 74.757812v9.398438c0 41.222656-33.535156 74.757812-74.757812 74.757812zm0 0" fill="#fff"/><path d="m370.242188 189.480469h-64.472657v34h64.472657c22.472656 0 40.757812 18.285156 40.757812 40.757812v9.398438c0 22.472656-18.285156 40.757812-40.757812 40.757812h-82.933594c-12.675782 0-24.019532-5.820312-31.5-14.921875v41.9375c9.582031 4.46875 20.25 6.984375 31.5 6.984375h82.933594c41.222656 0 74.757812-33.539062 74.757812-74.757812v-9.398438c0-41.222656-33.535156-74.757812-74.757812-74.757812zm0 0" fill="#e9edf5"/><path d="m240 59h30v60.667969h-30zm0 0" fill="#ffe000"/><path d="m255.808594 59h14.191406v60.667969h-14.191406zm0 0" fill="#ffc200"/><path d="m145.890625 99.296875 21.214844-21.210937 42.90625 42.917968-21.21875 21.210938zm0 0" fill="#ffe000"/><path d="m301.988281 121.027344 42.90625-42.917969 21.214844 21.210937-42.902344 42.917969zm0 0" fill="#ffc200"/><path d="m242 392.332031h30v60.667969h-30zm0 0" fill="#ffe000"/><path d="m255.808594 392.332031h16.191406v60.667969h-16.191406zm0 0" fill="#ffc200"/><path d="m301.984375 390.964844 21.214844-21.207032 42.90625 42.914063-21.21875 21.210937zm0 0" fill="#ffc200"/><path d="m145.882812 412.710938 42.90625-42.917969 21.214844 21.210937-42.90625 42.917969zm0 0" fill="#ffe000"/></svg>